<?xml version="1.0" standalone="no"?>
<!DOCTYPE svg PUBLIC "-//W3C//DTD SVG 20010904//EN"
 "http://www.w3.org/TR/2001/REC-SVG-20010904/DTD/svg10.dtd">
<svg version="1.0" xmlns="http://www.w3.org/2000/svg"
 width="512.000000pt" height="512.000000pt" viewBox="0 0 512.000000 512.000000"
 preserveAspectRatio="xMidYMid meet">
<metadata>
Created by potrace 1.15, written by Peter Selinger 2001-2017
</metadata>
<g transform="translate(0.000000,512.000000) scale(0.100000,-0.100000)"
fill="#000000" stroke="none">
<path d="M2295 4569 c-676 -87 -1292 -535 -1601 -1163 -168 -344 -232 -709
-189 -1078 81 -697 437 -1234 1027 -1547 120 -64 364 -165 450 -187 85 -21
110 -15 134 33 16 33 19 67 22 246 3 154 0 212 -9 223 -10 12 -30 13 -108 8
-113 -8 -193 6 -265 44 -69 37 -170 152 -246 277 -85 141 -130 191 -205 227
-61 28 -42 29 45 1 77 -25 184 -94 245 -159 180 -190 212 -209 350 -209 77 0
98 4 147 27 62 29 72 42 82 108 4 25 14 57 24 71 54 81 62 96 62 120 0 41 -30
58 -136 80 -371 74 -578 245 -670 554 -22 77 -26 108 -26 215 0 194 50 348
162 495 28 37 50 74 50 83 0 9 -10 42 -22 72 -28 69 -31 240 -6 305 15 39 16
40 59 36 115 -9 278 -69 393 -146 l54 -35 116 30 c236 61 454 61 688 1 121
-31 98 -37 218 47 90 63 196 106 311 126 36 6 37 5 54 -36 27 -63 32 -216 10
-293 -31 -107 -30 -115 12 -170 173 -229 223 -570 119 -826 -73 -182 -204
-312 -387 -386 -55 -22 -129 -40 -310 -73 -113 -21 -118 -53 -35 -216 80 -158
87 -191 95 -454 l6 -225 28 -3 c59 -7 60 0 54 248 -4 157 -10 244 -21 288 -18
70 -73 195 -106 242 -12 17 -17 30 -12 30 35 0 240 44 299 64 286 97 474 324
524 631 18 116 7 309 -26 420 -32 110 -72 199 -126 278 l-41 59 16 64 c32 128
16 313 -37 409 -19 34 -28 40 -60 43 -117 10 -372 -87 -473 -179 -17 -16 -26
-18 -47 -10 -46 18 -230 49 -327 56 -118 9 -298 -8 -428 -40 l-97 -24 -36 24
c-109 71 -263 127 -403 145 -115 16 -129 11 -154 -48 -46 -106 -53 -287 -17
-394 l17 -48 -34 -47 c-119 -165 -170 -328 -170 -538 1 -185 40 -330 127 -470
87 -141 185 -227 340 -301 84 -40 262 -94 313 -94 12 0 22 -2 22 -4 0 -2 -11
-28 -24 -57 -14 -30 -28 -71 -32 -93 -6 -32 -13 -41 -48 -57 -23 -10 -64 -19
-94 -19 -78 0 -135 33 -223 130 -40 45 -100 102 -134 127 -159 120 -349 174
-432 123 -28 -17 -33 -26 -33 -58 0 -49 31 -79 122 -116 79 -33 95 -50 187
-198 169 -274 282 -354 514 -366 l107 -5 0 -169 0 -168 -27 6 c-47 10 -252 93
-368 148 -388 184 -672 457 -855 819 -109 217 -181 468 -209 729 -50 457 95
947 398 1343 68 90 246 269 336 340 262 204 538 334 855 401 170 35 477 45
650 20 798 -117 1447 -682 1639 -1429 50 -191 65 -320 65 -537 0 -210 -13
-312 -61 -495 -191 -732 -824 -1249 -1675 -1370 -57 -8 -126 -15 -154 -15 -63
0 -87 -16 -82 -55 3 -29 4 -30 68 -33 83 -4 313 30 461 68 705 180 1238 659
1442 1295 160 497 116 1076 -115 1540 -96 191 -199 335 -358 499 -338 348
-776 566 -1260 626 -100 12 -405 11 -505 -1z"/>
</g>
</svg>
